<svg width="679" height="167" viewBox="0 0 679 167" fill="none" xmlns="http://www.w3.org/2000/svg">
<path fill-rule="evenodd" clip-rule="evenodd" d="M152.512 145.025H128.647V0H151.511L152.679 3.67153L173.206 67.1723V0H197.155V145.025H174.291L173.123 141.437L152.512 77.8531V145.025ZM274.257 109.562C274.257 119.408 270.752 127.753 263.826 134.595C256.817 141.604 248.473 145.025 238.793 145.025H210.088V0H238.793C248.473 0 256.817 3.50464 263.826 10.4305C270.752 17.3563 274.257 25.7007 274.257 35.5471V48.9815C274.257 54.3219 273.089 59.412 270.836 64.2518C269.25 67.4226 267.414 70.1763 265.245 72.5127C267.414 75.016 269.25 77.8531 270.836 80.8571C273.089 85.6968 274.257 90.7869 274.257 96.0439V109.562ZM233.953 121.16H238.793C241.964 121.16 244.634 120.076 246.971 117.739C249.224 115.486 250.392 112.733 250.392 109.562V96.0439C250.392 92.873 249.224 90.2028 246.971 87.8664C244.634 85.6134 241.964 84.4452 238.793 84.4452H233.953V121.16ZM233.953 23.9484V60.5802H238.793C241.964 60.5802 244.634 59.4955 246.971 57.159C249.224 54.9061 250.392 52.1524 250.392 48.9815V35.5471C250.392 32.3762 249.224 29.706 246.971 27.3696C244.634 25.1166 241.964 23.9484 238.793 23.9484H233.953ZM309.053 145.025V92.7061H312.224C315.395 92.7061 318.065 93.8743 320.401 96.1273C322.654 98.3803 323.822 101.134 323.822 104.305V131.674C323.822 134.011 323.989 136.431 324.24 138.851C324.406 141.354 325.074 143.357 326.075 145.025H349.94C348.271 142.021 347.52 137.515 347.771 131.674V104.305C347.771 95.3763 344.767 87.5326 338.759 80.7736C344.767 74.0981 347.771 66.2544 347.771 57.2425V35.5471C347.771 25.7842 344.266 17.4398 337.34 10.4305C330.331 3.50464 321.987 0 312.224 0H285.188V145.025H309.053ZM309.053 23.9484H312.224C315.395 23.9484 318.065 25.1166 320.401 27.3696C322.654 29.6226 323.822 32.3762 323.822 35.5471V57.2425C323.822 60.4133 322.654 63.167 320.401 65.42C318.065 67.7564 315.395 68.8412 312.224 68.8412H309.053V23.9484ZM416.612 145.025H359.453V0H416.612V23.9484H383.318V60.5802H403.094V84.4452H383.318V121.16H416.612V145.025ZM453.578 34.6292L448.404 4.33908L447.653 0H423.621L424.706 6.17484L447.653 140.686L448.404 145.025H471.768L472.519 140.686L481.197 89.7021L489.959 140.686L490.71 145.025H514.074L514.825 140.686L537.772 6.17484L538.857 0H514.825L514.074 4.33908L508.901 34.6292L506.564 48.0637L502.392 72.763L498.137 48.0637L495.884 34.6292L493.297 19.359L489.959 0H472.519L471.768 4.33908L466.595 34.6292L464.342 48.0637L460.086 72.763L455.914 48.0637L453.578 34.6292ZM585.516 126.075C584.045 125.607 582.479 125.359 580.836 125.359C576.664 125.359 572.838 126.942 569.898 129.882L569.857 129.923L569.818 129.963C566.936 132.919 565.406 136.675 565.406 140.789C565.406 142.235 565.593 143.657 565.971 145.025H545.199V0H602.358V23.9484H569.064V60.5802H588.84V84.4452H569.064V121.16H585.516V126.075ZM585.516 136.387C585.471 136.34 585.425 136.293 585.378 136.246C584.099 134.999 582.595 134.359 580.836 134.359C579.045 134.359 577.509 134.999 576.262 136.246C575.014 137.526 574.406 139.029 574.406 140.789C574.406 142.422 574.911 143.842 575.946 145.025C576.046 145.14 576.151 145.253 576.262 145.363C577.509 146.643 579.045 147.25 580.836 147.25C582.595 147.25 584.099 146.643 585.378 145.363C586.658 144.116 587.298 142.58 587.298 140.789C587.298 139.094 586.704 137.636 585.516 136.387ZM678.375 84.2518V32.2093C678.375 23.3643 675.204 15.7709 668.946 9.5126C662.604 3.17087 655.011 0 646.249 0H614.123V84.2518H637.988V23.9484H646.249C648.502 23.9484 650.422 24.7828 652.007 26.3683C653.592 28.0371 654.427 29.9563 654.427 32.2093V84.2518H678.375ZM77.5202 47.2627C77.5202 46.4688 77.7543 45.6926 78.1934 45.0311L106.386 2.55628C108.596 -0.77377 113.783 0.791036 113.783 4.78786V124.049C113.783 136.722 103.51 146.995 90.8374 146.995H29.4479C16.7753 146.995 6.50205 136.722 6.50205 124.049V4.787C6.50205 0.790174 11.6892 -0.774625 13.8995 2.55542L41.9632 44.8364C42.4022 45.4978 42.6364 46.2741 42.6364 47.068V85.393C42.6364 89.1074 45.6476 92.1185 49.362 92.1185H70.7946C74.509 92.1185 77.5202 89.1074 77.5202 85.393V47.2627ZM31.6018 101.017C31.6018 103.966 33.9923 106.357 36.9411 106.357H83.2155C86.1643 106.357 88.5549 103.966 88.5549 101.017C88.5549 98.0686 86.1643 95.6781 83.2155 95.6781H36.9411C33.9923 95.6781 31.6018 98.0686 31.6018 101.017ZM0 161.624C0 158.931 2.18324 156.748 4.8764 156.748H115.408C118.101 156.748 120.284 158.931 120.284 161.624C120.284 164.317 118.101 166.501 115.408 166.501H4.8764C2.18324 166.501 0 164.317 0 161.624ZM657.691 90.6547H655.675V92.6699V97.82V99.8353H657.691H667.159L655.771 138.509L655.675 139.085V144.235V146.25H657.691H675.316H677.331V144.235V139.085V137.102H675.316H665.848L677.235 98.3958L677.331 97.852V92.6699V90.6547H675.316H657.691ZM595.569 90.6867H598.288H603.662H605.134L605.582 92.0941L608.781 102.65L610.092 107.033L611.436 102.65L614.634 92.0941L615.05 90.6867H616.554H621.928H624.615L623.847 93.2457L616.202 118.453L623.847 143.659L624.615 146.25H621.928H616.554H615.05L614.634 144.843L611.436 134.287L610.092 129.872L608.781 134.287L605.582 144.843L605.134 146.25H603.662H598.288H595.569L596.369 143.659L603.982 118.453L596.369 93.2457L595.569 90.6867ZM628.649 100.853L628.648 100.851C627.602 96.8495 626.714 93.4569 625.894 90.6867H635.459C636.45 96.6685 638.498 106.201 639.745 111.191L640.072 109.628L640.073 109.625C641.448 103.058 643.052 95.3931 644 90.6867H653.564C652.253 95.3889 644.32 123.923 644.32 123.923V146.25H635.139V124.242C632.341 114.969 630.297 107.156 628.649 100.853Z" fill="#E7CC98"/>
</svg>
