<svg width="95" height="130" viewBox="0 0 95 130" fill="none" xmlns="http://www.w3.org/2000/svg">
<path fill-rule="evenodd" clip-rule="evenodd" d="M61.2993 34.714C60.9561 35.2311 60.7731 35.8379 60.7731 36.4584V66.2652C60.7731 69.1688 58.4192 71.5227 55.5156 71.5227H38.7616C35.8579 71.5227 33.5041 69.1688 33.5041 66.2652V36.3062C33.5041 35.6856 33.3211 35.0788 32.9779 34.5618L11.0402 1.51033C9.31239 -1.09281 5.25752 0.130412 5.25752 3.25477V96.4831C5.25752 106.389 13.2882 114.42 23.1945 114.42H71.1833C81.0896 114.42 89.1202 106.389 89.1202 96.4831V3.25545C89.1202 0.131086 85.0654 -1.09214 83.3376 1.51099L61.2993 34.714ZM29.0521 82.6529C26.7469 82.6529 24.8782 80.7842 24.8782 78.479C24.8782 76.1739 26.7469 74.3052 29.0521 74.3052H65.2252C67.5303 74.3052 69.399 76.1739 69.399 78.479C69.399 80.7842 67.5303 82.6529 65.2252 82.6529H29.0521Z" fill="#E7CC98"/>
<path d="M0.174805 125.856C0.174805 123.751 1.88146 122.044 3.98673 122.044H90.3904C92.4956 122.044 94.2023 123.751 94.2023 125.856C94.2023 127.961 92.4956 129.668 90.3904 129.668H3.98673C1.88146 129.668 0.174805 127.961 0.174805 125.856Z" fill="#E7CC98"/>
</svg>
