<svg width="680" height="168" viewBox="0 0 680 168" fill="none" xmlns="http://www.w3.org/2000/svg">
<path d="M129.46 145.561H153.325V78.3889L173.935 141.973L175.104 145.561H197.967V0.535797H174.019V67.7081L153.492 4.20733L152.323 0.535797H129.46V145.561Z" fill="#E7CC98"/>
<path d="M264.639 135.131C271.565 128.288 275.069 119.944 275.069 110.098V96.5797C275.069 91.3227 273.901 86.2326 271.648 81.3929C270.063 78.3889 268.227 75.5518 266.057 73.0485C268.227 70.7121 270.063 67.9584 271.648 64.7876C273.901 59.9478 275.069 54.8577 275.069 49.5173V36.0829C275.069 26.2365 271.565 17.8921 264.639 10.9663C257.629 4.04044 249.285 0.535797 239.606 0.535797H210.901V145.561H239.606C249.285 145.561 257.629 142.14 264.639 135.131ZM239.606 121.696H234.766V84.981H239.606C242.776 84.981 245.447 86.1492 247.783 88.4022C250.036 90.7386 251.204 93.4088 251.204 96.5797V110.098C251.204 113.268 250.036 116.022 247.783 118.275C245.447 120.611 242.776 121.696 239.606 121.696ZM234.766 61.116V24.4842H239.606C242.776 24.4842 245.447 25.6524 247.783 27.9054C250.036 30.2418 251.204 32.912 251.204 36.0829V49.5173C251.204 52.6882 250.036 55.4418 247.783 57.6948C245.447 60.0313 242.776 61.116 239.606 61.116H234.766Z" fill="#E7CC98"/>
<path d="M309.865 145.561V93.2419H313.036C316.207 93.2419 318.877 94.4101 321.214 96.6631C323.467 98.9161 324.635 101.67 324.635 104.841V132.21C324.635 134.547 324.802 136.966 325.052 139.386C325.219 141.89 325.887 143.892 326.888 145.561H350.753C349.084 142.557 348.333 138.051 348.583 132.21V104.841C348.583 95.9121 345.579 88.0684 339.571 81.3094C345.579 74.6339 348.583 66.7902 348.583 57.7783V36.0829C348.583 26.3199 345.079 17.9756 338.153 10.9663C331.143 4.04044 322.799 0.535797 313.036 0.535797H286V145.561H309.865ZM309.865 24.4842H313.036C316.207 24.4842 318.877 25.6524 321.214 27.9054C323.467 30.1584 324.635 32.912 324.635 36.0829V57.7783C324.635 60.9491 323.467 63.7028 321.214 65.9558C318.877 68.2922 316.207 69.377 313.036 69.377H309.865V24.4842Z" fill="#E7CC98"/>
<path d="M360.265 0.535797V145.561H417.424V121.696H384.13V84.981H403.907V61.116H384.13V24.4842H417.424V0.535797H360.265Z" fill="#E7CC98"/>
<path d="M454.39 35.165L449.217 4.87488L448.466 0.535797H424.434L425.518 6.71064L448.466 141.222L449.217 145.561H472.581L473.332 141.222L482.01 90.2379L490.772 141.222L491.523 145.561H514.887L515.638 141.222L538.585 6.71064L539.67 0.535797H515.638L514.887 4.87488L509.713 35.165L507.377 48.5995L503.205 73.2988L498.949 48.5995L496.696 35.165L494.109 19.8948L490.772 0.535797H473.332L472.581 4.87488L467.407 35.165L465.154 48.5995L460.899 73.2988L456.726 48.5995L454.39 35.165Z" fill="#E7CC98"/>
<path d="M546.011 0.535797V145.561H603.17V121.696H569.876V84.981H589.652V61.116H569.876V24.4842H603.17V0.535797H546.011Z" fill="#E7CC98"/>
<path d="M647.062 0.535797H614.936V145.561H647.062C655.907 145.561 663.417 142.474 669.759 136.132C676.017 129.874 679.188 122.28 679.188 113.435V32.7451C679.188 23.9001 676.017 16.3067 669.759 10.0484C663.417 3.70666 655.823 0.535797 647.062 0.535797ZM647.062 24.4842C649.315 24.4842 651.234 25.3186 652.819 26.9041C654.405 28.5729 655.239 30.4921 655.239 32.7451V113.435C655.239 115.772 654.405 117.691 652.819 119.276C651.151 120.945 649.231 121.696 647.062 121.696H638.801V24.4842H647.062Z" fill="#E7CC98"/>
<path fill-rule="evenodd" clip-rule="evenodd" d="M79.0059 45.5669C78.5668 46.2284 78.3327 47.0046 78.3327 47.7985V85.9288C78.3327 89.6432 75.3215 92.6543 71.6071 92.6543H50.1745C46.4601 92.6543 43.4489 89.6432 43.4489 85.9288V47.6038C43.4489 46.8099 43.2147 46.0336 42.7757 45.3722L14.712 3.09122C12.5017 -0.238828 7.31455 1.32597 7.31455 5.3228V124.585C7.31455 137.257 17.5878 147.531 30.2604 147.531H91.6499C104.323 147.531 114.596 137.257 114.596 124.585V5.32366C114.596 1.32683 109.409 -0.237973 107.198 3.09208L79.0059 45.5669ZM37.7536 106.893C34.8048 106.893 32.4143 104.502 32.4143 101.553C32.4143 98.6044 34.8048 96.2139 37.7536 96.2139H84.028C86.9769 96.2139 89.3674 98.6044 89.3674 101.553C89.3674 104.502 86.9769 106.893 84.028 106.893H37.7536Z" fill="#E7CC98"/>
<path d="M0.8125 162.16C0.8125 159.467 2.99574 157.284 5.6889 157.284H116.221C118.914 157.284 121.097 159.467 121.097 162.16C121.097 164.853 118.914 167.037 116.221 167.037H5.6889C2.99574 167.037 0.8125 164.853 0.8125 162.16Z" fill="#E7CC98"/>
</svg>
