<svg width="249" height="447" viewBox="0 0 249 447" fill="none" xmlns="http://www.w3.org/2000/svg">
<path fill-rule="evenodd" clip-rule="evenodd" d="M158.665 102.415C157.835 103.666 157.392 105.135 157.392 106.637V178.782C157.392 185.81 151.694 191.507 144.667 191.507H104.115C97.0868 191.507 91.3895 185.81 91.3895 178.782V106.268C91.3895 104.766 90.9465 103.298 90.1158 102.046L37.0175 22.0479C32.8355 15.7472 23.021 18.7079 23.021 26.2702V251.921C23.021 275.899 42.4586 295.336 66.4359 295.336H182.589C206.566 295.336 226.004 275.899 226.004 251.921V26.2718C226.004 18.7095 216.189 15.7488 212.007 22.0494L158.665 102.415ZM80.6137 218.447C75.0343 218.447 70.5113 213.924 70.5113 208.344C70.5113 202.765 75.0343 198.242 80.6137 198.242H168.168C173.747 198.242 178.27 202.765 178.27 208.344C178.27 213.924 173.747 218.447 168.168 218.447H80.6137Z" fill="#E7CC98"/>
<path d="M10.7188 323.016C10.7188 317.921 14.8496 313.79 19.9452 313.79H229.078C234.174 313.79 238.304 317.921 238.304 323.016C238.304 328.112 234.174 332.243 229.078 332.243H19.9452C14.8496 332.243 10.7188 328.112 10.7188 323.016Z" fill="#E7CC98"/>
<path d="M19.6171 356.707C15.107 356.707 11.2713 358.308 8.1522 361.512C4.94876 364.673 3.38919 368.509 3.38919 372.977L3.38919 413.736C3.38919 418.204 4.94876 422.04 8.1522 425.201C11.2713 428.405 15.0649 429.964 19.6171 429.964C24.0851 429.964 27.8786 428.405 31.0821 425.201C34.2433 421.998 35.8451 418.204 35.8451 413.736L35.8451 372.977C35.8451 368.509 34.2433 364.715 31.0821 361.512C27.8786 358.308 24.0429 356.707 19.6171 356.707ZM19.6171 368.804C20.713 368.804 21.6825 369.225 22.5255 370.026C23.3264 370.869 23.7479 371.839 23.7479 372.977L23.7479 413.736C23.7479 414.917 23.3264 415.886 22.5255 416.687C21.6404 417.53 20.6709 417.909 19.6171 417.909C18.4791 417.909 17.5096 417.53 16.6666 416.687C15.8236 415.886 15.4442 414.917 15.4442 413.736L15.4442 372.977C15.4442 371.839 15.8236 370.869 16.6666 370.026C17.4675 369.225 18.4369 368.804 19.6171 368.804ZM49.3467 427.309V429.964H51.96H58.7884H61.4017V427.309L61.4017 396.033L71.8129 428.152L72.403 429.964H74.2998H81.2968H83.9522V427.309L83.9522 359.362V356.707H81.2968H74.5105H71.8551V359.362L71.8551 390.638L61.486 358.561L60.8959 356.707H58.957H51.96H49.3467L49.3467 359.362L49.3467 427.309ZM100.868 356.707H98.2547V359.362L98.2547 427.309V429.964H100.868H123.924H126.58V427.309V420.523V417.909H123.924H110.31L110.31 359.362V356.707H107.696H100.868ZM142.189 356.707H139.576V359.362L139.576 427.309V429.964H142.189H149.017H151.631V427.309L151.631 359.362V356.707H149.017H142.189ZM167.324 427.309V429.964H169.938H176.766H179.379V427.309L179.379 396.033L189.79 428.152L190.381 429.964H192.277H199.274H201.93V427.309L201.93 359.362V356.707H199.274H192.488H189.833V359.362V390.638L179.464 358.561L178.873 356.707H176.935H169.938H167.324V359.362L167.324 427.309ZM218.846 356.707H216.232V359.362L216.232 427.309V429.964H218.846L242.45 429.964H245.105V427.309L245.105 420.523V417.909H242.45H228.287V399.363H235.664H238.277V396.75V389.963V387.308H235.664H228.287V368.804H242.45H245.105V366.148V359.362V356.707H242.45H218.846Z" fill="#E7CC98"/>
</svg>
