<svg width="948" height="587" viewBox="0 0 948 587" fill="none" xmlns="http://www.w3.org/2000/svg">
<path d="M331.829 220.229L312.005 225.184V284.044L331.829 279.088V220.229ZM341.74 217.982V277.118C343.264 277.139 344.783 277.393 346.243 277.88L361.563 282.987V224.59L341.74 217.982ZM302.094 227.154C300.57 227.134 299.051 226.879 297.591 226.392L282.271 221.286V279.683L302.094 286.29V227.154ZM278.882 209.709L300.725 216.989C301.619 217.288 302.58 217.324 303.494 217.096L340.34 207.884C341.254 207.656 342.215 207.693 343.109 207.991L368.086 216.316C370.11 216.991 371.475 218.885 371.475 221.018V289.862C371.475 292.599 369.256 294.818 366.519 294.818C365.986 294.818 365.457 294.732 364.952 294.564L343.109 287.283C342.215 286.985 341.254 286.948 340.34 287.177L303.494 296.388C302.58 296.617 301.619 296.58 300.725 296.282L275.748 287.956C273.724 287.281 272.359 285.388 272.359 283.255V214.41C272.359 211.673 274.578 209.454 277.315 209.454C277.848 209.454 278.377 209.54 278.882 209.709Z" fill="#E7CC98"/>
<path d="M797.443 207.737L764.548 208.107C762.267 208.133 760.067 208.803 758.178 209.997L742.966 214.134C742.91 214.15 742.853 214.167 742.798 214.187L737.603 215.991L737.601 215.986L737.574 216.001L736.976 216.208C735.501 216.721 734.157 217.506 732.998 218.509L728.524 220.961L725.455 222.67L725.406 222.604L724.918 222.97L723.418 223.804C722.092 224.543 720.929 225.518 719.975 226.669L712.208 232.482C712.186 232.498 712.166 232.514 712.145 232.531C709.604 234.562 708.008 237.461 707.648 240.69C707.293 243.887 708.189 247.032 710.176 249.556L741.718 296.127C741.754 296.18 741.795 296.233 741.835 296.285C744.308 299.38 747.994 300.943 751.676 300.847C754.22 300.779 756.762 299.92 758.903 298.221L767.645 291.777L777.518 289.914L782.556 288.969L782.53 289.363L798.463 289.804C798.527 289.802 798.588 289.801 798.652 289.799C805.259 289.626 810.557 283.484 810.483 276.871L809.762 220.084C809.687 213.371 804.156 207.663 797.443 207.737ZM734.672 224.244C735.008 223.629 735.432 223.074 735.923 222.591L739.605 220.573L741.442 219.935C740.471 222.155 740.169 224.638 740.621 227.052L750.264 282.605L734.207 230.155C734.199 230.126 734.189 230.097 734.179 230.067C733.512 228.149 733.692 226.027 734.672 224.244ZM752.511 220.419L753.137 270.011L745.528 226.184C745.526 226.171 745.524 226.159 745.521 226.147C745.149 224.171 745.627 222.114 746.833 220.503C747.912 219.062 749.482 218.084 751.253 217.75L752.837 217.451C752.609 218.413 752.498 219.406 752.511 220.419ZM728.865 226.478C728.688 228.21 728.879 229.978 729.455 231.656L745.576 284.317L723.127 238.064C723.106 238.022 723.084 237.981 723.062 237.94C722.058 236.136 721.878 233.982 722.573 232.031C722.8 231.394 723.113 230.799 723.5 230.259L727.635 227.163L728.865 226.478ZM714.133 246.525C712.932 245.026 712.39 243.15 712.603 241.242C712.813 239.347 713.747 237.647 715.229 236.448L717.189 234.982C717.269 236.827 717.767 238.648 718.673 240.299L740.794 285.876L714.25 246.684C714.212 246.63 714.173 246.577 714.133 246.525ZM805.482 276.314C805.525 280.218 802.389 283.478 798.489 283.58L765.477 283.955C761.513 283.998 758.252 280.808 758.208 276.843L757.495 220.361C757.477 218.772 757.97 217.26 758.918 215.99C759.044 215.816 759.175 215.656 759.302 215.513C760.639 214.006 762.481 213.147 764.49 213.094L797.5 212.722C801.465 212.677 804.726 215.867 804.77 219.833L805.482 276.314Z" fill="#E7CC98"/>
<path fill-rule="evenodd" clip-rule="evenodd" d="M20.3291 20.2435V463.687H927.938V20.2435H20.3291ZM10.3291 0.24353C4.80625 0.24353 0.329102 4.7207 0.329102 10.2435V473.687C0.329102 479.21 4.80626 483.687 10.3291 483.687H937.938C943.461 483.687 947.938 479.21 947.938 473.687V10.2435C947.938 4.72068 943.461 0.24353 937.938 0.24353H10.3291Z" fill="#E7CC98"/>
<path fill-rule="evenodd" clip-rule="evenodd" d="M586.329 483.687V0.24353L596.329 0.243531V483.687H586.329Z" fill="#E7CC98"/>
<path d="M60.7972 77.1267H73.6612V94.2627H70.8772L69.9652 90.6147C68.0452 93.4307 65.2132 94.8387 61.4692 94.8387C57.2772 94.8387 54.0612 93.4147 51.8212 90.5667C49.6132 87.7187 48.5092 83.4627 48.5092 77.7987C48.5092 72.1987 49.6612 67.9587 51.9652 65.0787C54.2692 62.1987 57.5172 60.7587 61.7092 60.7587C65.2932 60.7587 68.1732 61.7667 70.3492 63.7827C72.5572 65.7987 73.6612 68.7267 73.6612 72.5667H69.3412C69.3412 69.9107 68.6532 67.9267 67.2772 66.6147C65.9332 65.3027 64.0772 64.6467 61.7092 64.6467C58.9252 64.6467 56.7652 65.6547 55.2292 67.6707C53.6932 69.6867 52.9252 72.6627 52.9252 76.5987V78.9987C52.9252 82.9667 53.6452 85.9587 55.0852 87.9747C56.5572 89.9587 58.6852 90.9507 61.4692 90.9507C64.1892 90.9507 66.1732 90.1827 67.4212 88.6467C68.7012 87.1107 69.3412 84.7587 69.3412 81.5907V80.8227H60.7972V77.1267Z" fill="#E7CC98"/>
<path d="M87.7106 94.8387C84.7346 94.8387 82.4786 93.7667 80.9426 91.6227C79.4386 89.4467 78.6866 86.1187 78.6866 81.6387C78.6866 77.1587 79.4386 73.8467 80.9426 71.7027C82.4786 69.5267 84.7346 68.4387 87.7106 68.4387C90.6866 68.4387 92.9266 69.5267 94.4306 71.7027C95.9666 73.8467 96.7346 77.1587 96.7346 81.6387C96.7346 86.1187 95.9666 89.4467 94.4306 91.6227C92.9266 93.7667 90.6866 94.8387 87.7106 94.8387ZM87.7106 91.3347C90.9746 91.3347 92.6066 88.4067 92.6066 82.5507V80.7267C92.6066 74.8707 90.9746 71.9427 87.7106 71.9427C84.4466 71.9427 82.8146 74.8707 82.8146 80.7267V82.5507C82.8146 88.4067 84.4466 91.3347 87.7106 91.3347Z" fill="#E7CC98"/>
<path d="M109.601 94.8387C106.625 94.8387 104.369 93.7667 102.833 91.6227C101.329 89.4467 100.577 86.1187 100.577 81.6387C100.577 77.1587 101.329 73.8467 102.833 71.7027C104.369 69.5267 106.625 68.4387 109.601 68.4387C112.577 68.4387 114.817 69.5267 116.321 71.7027C117.857 73.8467 118.625 77.1587 118.625 81.6387C118.625 86.1187 117.857 89.4467 116.321 91.6227C114.817 93.7667 112.577 94.8387 109.601 94.8387ZM109.601 91.3347C112.865 91.3347 114.497 88.4067 114.497 82.5507V80.7267C114.497 74.8707 112.865 71.9427 109.601 71.9427C106.337 71.9427 104.705 74.8707 104.705 80.7267V82.5507C104.705 88.4067 106.337 91.3347 109.601 91.3347Z" fill="#E7CC98"/>
<path d="M127.412 102.999C125.428 102.999 123.892 102.423 122.804 101.271C121.716 100.151 121.172 98.7267 121.172 96.9987C121.172 95.7507 121.46 94.6467 122.036 93.6867C122.644 92.6947 123.444 92.0067 124.436 91.6227C123.796 91.2067 123.284 90.6627 122.9 89.9907C122.548 89.3187 122.372 88.5987 122.372 87.8307C122.372 86.8387 122.692 85.9587 123.332 85.1907C123.972 84.4227 124.836 83.8467 125.924 83.4627C123.972 81.8627 122.996 79.6867 122.996 76.9347C122.996 74.2787 123.732 72.1987 125.204 70.6947C126.676 69.1907 128.692 68.4387 131.252 68.4387C132.564 68.4387 133.78 68.7427 134.9 69.3507C135.924 68.8067 136.66 68.1667 137.108 67.4307C137.588 66.6947 137.892 65.8627 138.02 64.9347H141.476C141.476 66.4707 141.092 67.7827 140.324 68.8707C139.588 69.9587 138.564 70.6627 137.252 70.9827C138.756 72.5507 139.508 74.5347 139.508 76.9347C139.508 79.5267 138.772 81.5907 137.3 83.1267C135.86 84.6307 133.908 85.3987 131.444 85.4307H128.804C128.164 85.4307 127.62 85.6547 127.172 86.1027C126.724 86.5187 126.5 87.0467 126.5 87.6867C126.5 88.2947 126.724 88.8227 127.172 89.2707C127.62 89.7187 128.164 89.9427 128.804 89.9427H136.004C137.796 89.9427 139.236 90.5187 140.324 91.6707C141.412 92.7907 141.956 94.1827 141.956 95.8467C141.956 97.9267 141.3 99.6387 139.988 100.983C138.708 102.327 136.9 102.999 134.564 102.999H127.412ZM131.204 82.1667C132.58 82.1667 133.636 81.7027 134.372 80.7747C135.14 79.8467 135.524 78.5667 135.524 76.9347C135.524 75.2387 135.14 73.9427 134.372 73.0467C133.636 72.1507 132.58 71.7027 131.204 71.7027C129.828 71.7027 128.772 72.1667 128.036 73.0947C127.3 74.0227 126.932 75.3027 126.932 76.9347C126.932 78.6307 127.3 79.9267 128.036 80.8227C128.772 81.7187 129.828 82.1667 131.204 82.1667ZM134.996 99.5907C135.828 99.5907 136.532 99.3027 137.108 98.7267C137.684 98.1507 137.972 97.4467 137.972 96.6147C137.972 95.7507 137.716 95.0467 137.204 94.5027C136.692 93.9587 135.956 93.6867 134.996 93.6867H128.036C127.076 93.6867 126.34 93.9587 125.828 94.5027C125.348 95.0467 125.108 95.7507 125.108 96.6147C125.108 97.4787 125.364 98.1827 125.876 98.7267C126.388 99.3027 127.108 99.5907 128.036 99.5907H134.996Z" fill="#E7CC98"/>
<path d="M144.838 59.5587H148.774V94.2627H144.838V59.5587Z" fill="#E7CC98"/>
<path d="M162.725 94.8387C159.525 94.8387 157.125 93.7987 155.525 91.7187C153.957 89.6067 153.173 86.2467 153.173 81.6387C153.173 77.1267 153.957 73.7987 155.525 71.6547C157.093 69.5107 159.477 68.4387 162.677 68.4387C165.493 68.4387 167.573 69.3827 168.917 71.2707C170.293 73.1267 170.981 76.1347 170.981 80.2947V82.7907H157.301C157.333 85.7347 157.781 87.8947 158.645 89.2707C159.541 90.6467 160.933 91.3347 162.821 91.3347C164.101 91.3347 165.125 90.8227 165.893 89.7987C166.693 88.7747 167.093 87.3987 167.093 85.6707H170.981C170.981 88.4867 170.213 90.7267 168.677 92.3907C167.173 94.0227 165.189 94.8387 162.725 94.8387ZM166.853 79.2867C166.853 76.8867 166.501 75.0627 165.797 73.8147C165.093 72.5667 164.053 71.9427 162.677 71.9427C160.981 71.9427 159.701 72.5507 158.837 73.7667C158.005 74.9507 157.509 76.7907 157.349 79.2867H166.853Z" fill="#E7CC98"/>
<path d="M197.026 94.8387C193.762 94.8387 191.09 94.0387 189.01 92.4387C186.962 90.8387 185.938 88.3427 185.938 84.9507L185.986 83.9907H190.354L190.306 84.9987C190.306 86.9507 190.898 88.4387 192.082 89.4627C193.298 90.4547 194.882 90.9507 196.834 90.9507C199.042 90.9507 200.738 90.4867 201.922 89.5587C203.138 88.5987 203.746 87.2387 203.746 85.4787C203.746 84.2947 203.41 83.3347 202.738 82.5987C202.098 81.8307 201.282 81.2227 200.29 80.7747C199.33 80.3267 198.002 79.8307 196.306 79.2867C194.226 78.5827 192.546 77.9107 191.266 77.2707C189.986 76.6307 188.882 75.7027 187.954 74.4867C187.058 73.2387 186.61 71.6067 186.61 69.5907C186.61 66.7107 187.586 64.5187 189.538 63.0147C191.49 61.5107 194.002 60.7587 197.074 60.7587C200.146 60.7587 202.626 61.5267 204.514 63.0627C206.434 64.5667 207.394 66.8867 207.394 70.0227V70.5987H203.026V69.8787C203.026 68.2467 202.466 66.9667 201.346 66.0387C200.258 65.1107 198.866 64.6467 197.17 64.6467C195.346 64.6467 193.874 65.0467 192.754 65.8467C191.634 66.6147 191.074 67.7507 191.074 69.2547C191.074 70.3747 191.394 71.3027 192.034 72.0387C192.674 72.7427 193.474 73.3187 194.434 73.7667C195.394 74.1827 196.706 74.6627 198.37 75.2067C200.482 75.9107 202.178 76.5827 203.458 77.2227C204.77 77.8307 205.874 78.7587 206.77 80.0067C207.698 81.2227 208.162 82.8067 208.162 84.7587C208.162 88.2787 207.154 90.8387 205.138 92.4387C203.154 94.0387 200.45 94.8387 197.026 94.8387Z" fill="#E7CC98"/>
<path d="M212.62 59.5587H216.556V94.2627H212.62V59.5587Z" fill="#E7CC98"/>
<path d="M222.442 69.0147H226.378V94.2627H222.442V69.0147ZM222.346 59.5587H226.426V64.1187H222.346V59.5587Z" fill="#E7CC98"/>
<path d="M239.604 94.8387C237.108 94.8387 235.172 93.7507 233.796 91.5747C232.452 89.3987 231.78 86.0707 231.78 81.5907C231.78 77.2387 232.468 73.9587 233.844 71.7507C235.252 69.5427 237.076 68.4387 239.316 68.4387C240.564 68.4387 241.668 68.7107 242.628 69.2547C243.588 69.7667 244.276 70.4867 244.692 71.4147H244.932V59.5587H248.868V94.2627H245.892L245.364 91.3347H245.124C244.516 92.4867 243.732 93.3667 242.772 93.9747C241.812 94.5507 240.756 94.8387 239.604 94.8387ZM240.42 91.3347C243.428 91.3347 244.932 88.4067 244.932 82.5507V80.9187C244.932 74.9347 243.428 71.9427 240.42 71.9427C238.884 71.9427 237.748 72.6307 237.012 74.0067C236.276 75.3827 235.908 77.6227 235.908 80.7267V82.5507C235.908 85.6547 236.276 87.8947 237.012 89.2707C237.748 90.6467 238.884 91.3347 240.42 91.3347Z" fill="#E7CC98"/>
<path d="M263.319 94.8387C260.119 94.8387 257.719 93.7987 256.119 91.7187C254.551 89.6067 253.767 86.2467 253.767 81.6387C253.767 77.1267 254.551 73.7987 256.119 71.6547C257.687 69.5107 260.071 68.4387 263.271 68.4387C266.087 68.4387 268.167 69.3827 269.511 71.2707C270.887 73.1267 271.575 76.1347 271.575 80.2947V82.7907H257.895C257.927 85.7347 258.375 87.8947 259.239 89.2707C260.135 90.6467 261.527 91.3347 263.415 91.3347C264.695 91.3347 265.719 90.8227 266.487 89.7987C267.287 88.7747 267.687 87.3987 267.687 85.6707H271.575C271.575 88.4867 270.807 90.7267 269.271 92.3907C267.767 94.0227 265.783 94.8387 263.319 94.8387ZM267.447 79.2867C267.447 76.8867 267.095 75.0627 266.391 73.8147C265.687 72.5667 264.647 71.9427 263.271 71.9427C261.575 71.9427 260.295 72.5507 259.431 73.7667C258.599 74.9507 258.103 76.7907 257.943 79.2867H267.447Z" fill="#E7CC98"/>
<path d="M283.338 94.8387C280.618 94.8387 278.586 94.1347 277.242 92.7267C275.898 91.2867 275.226 89.5267 275.226 87.4467C275.226 87.0627 275.226 86.8067 275.226 86.6787C275.258 86.5187 275.274 86.4227 275.274 86.3907H279.402V86.8707C279.402 88.3747 279.786 89.5107 280.554 90.2787C281.322 91.0147 282.314 91.3827 283.53 91.3827C284.618 91.3827 285.514 91.0627 286.218 90.4227C286.954 89.7507 287.322 88.8227 287.322 87.6387C287.322 86.7427 287.098 86.0067 286.65 85.4307C286.202 84.8547 285.658 84.4067 285.018 84.0867C284.378 83.7347 283.482 83.3507 282.33 82.9347C280.922 82.4547 279.786 81.9747 278.922 81.4947C278.058 81.0147 277.322 80.3107 276.714 79.3827C276.106 78.4227 275.802 77.1747 275.802 75.6387C275.802 73.4307 276.506 71.6867 277.914 70.4067C279.354 69.0947 281.274 68.4387 283.674 68.4387C285.946 68.4387 287.722 69.1107 289.002 70.4547C290.282 71.7667 290.922 73.3987 290.922 75.3507L290.874 76.2627H286.794V75.8307C286.794 74.7107 286.522 73.7827 285.978 73.0467C285.434 72.2787 284.538 71.8947 283.29 71.8947C282.042 71.8947 281.162 72.2467 280.65 72.9507C280.138 73.6547 279.882 74.4547 279.882 75.3507C279.882 76.4387 280.25 77.2547 280.986 77.7987C281.754 78.3107 282.922 78.8227 284.49 79.3347C285.93 79.8467 287.114 80.3587 288.042 80.8707C288.97 81.3507 289.754 82.0867 290.394 83.0787C291.066 84.0707 291.402 85.3987 291.402 87.0627C291.402 89.6547 290.666 91.6067 289.194 92.9187C287.754 94.1987 285.802 94.8387 283.338 94.8387Z" fill="#E7CC98"/>
<path d="M628.112 80.6307L617.456 61.3347H622.112L630.464 76.5987H630.656L638.864 61.3347H642.944L632.336 80.6307V94.2627H628.112V80.6307Z" fill="#E7CC98"/>
<path d="M651.126 94.8387C648.15 94.8387 645.894 93.7667 644.358 91.6227C642.854 89.4467 642.102 86.1187 642.102 81.6387C642.102 77.1587 642.854 73.8467 644.358 71.7027C645.894 69.5267 648.15 68.4387 651.126 68.4387C654.102 68.4387 656.342 69.5267 657.846 71.7027C659.382 73.8467 660.15 77.1587 660.15 81.6387C660.15 86.1187 659.382 89.4467 657.846 91.6227C656.342 93.7667 654.102 94.8387 651.126 94.8387ZM651.126 91.3347C654.39 91.3347 656.022 88.4067 656.022 82.5507V80.7267C656.022 74.8707 654.39 71.9427 651.126 71.9427C647.862 71.9427 646.23 74.8707 646.23 80.7267V82.5507C646.23 88.4067 647.862 91.3347 651.126 91.3347Z" fill="#E7CC98"/>
<path d="M671.192 94.8387C669.176 94.8387 667.624 94.2467 666.536 93.0627C665.48 91.8467 664.952 89.8947 664.952 87.2067V69.0147H668.888V86.9187C668.888 88.5507 669.192 89.7027 669.8 90.3747C670.408 91.0147 671.288 91.3347 672.44 91.3347C673.752 91.3347 674.856 90.7107 675.752 89.4627C676.68 88.2147 677.144 86.5347 677.144 84.4227V69.0147H681.08V94.2627H678.104L677.576 91.3347H677.288C675.976 93.6707 673.944 94.8387 671.192 94.8387Z" fill="#E7CC98"/>
<path d="M686.843 69.0147H689.819L690.347 72.3267H690.635C690.987 71.2067 691.515 70.2787 692.219 69.5427C692.923 68.8067 693.819 68.4387 694.907 68.4387C695.579 68.4387 696.203 68.5667 696.779 68.8227V72.9027H695.483C694.107 72.9027 692.971 73.3827 692.075 74.3427C691.211 75.2707 690.779 76.7747 690.779 78.8547V94.2627H686.843V69.0147Z" fill="#E7CC98"/>
<path d="M711.37 61.3347H721.594C725.53 61.3347 728.586 62.6947 730.762 65.4147C732.97 68.1347 734.074 72.1027 734.074 77.3187C734.074 82.8867 732.986 87.1107 730.81 89.9907C728.634 92.8387 725.562 94.2627 721.594 94.2627H711.37V61.3347ZM721.21 90.4227C723.866 90.4227 725.93 89.4307 727.402 87.4467C728.906 85.4307 729.658 82.4547 729.658 78.5187V76.1187C729.658 72.5347 728.906 69.8147 727.402 67.9587C725.93 66.1027 723.866 65.1747 721.21 65.1747H715.594V90.4227H721.21Z" fill="#E7CC98"/>
<path d="M747.984 94.8387C744.784 94.8387 742.384 93.7987 740.784 91.7187C739.216 89.6067 738.432 86.2467 738.432 81.6387C738.432 77.1267 739.216 73.7987 740.784 71.6547C742.352 69.5107 744.736 68.4387 747.936 68.4387C750.752 68.4387 752.832 69.3827 754.176 71.2707C755.552 73.1267 756.24 76.1347 756.24 80.2947V82.7907H742.56C742.592 85.7347 743.04 87.8947 743.904 89.2707C744.8 90.6467 746.192 91.3347 748.08 91.3347C749.36 91.3347 750.384 90.8227 751.152 89.7987C751.952 88.7747 752.352 87.3987 752.352 85.6707H756.24C756.24 88.4867 755.472 90.7267 753.936 92.3907C752.432 94.0227 750.448 94.8387 747.984 94.8387ZM752.112 79.2867C752.112 76.8867 751.76 75.0627 751.056 73.8147C750.352 72.5667 749.312 71.9427 747.936 71.9427C746.24 71.9427 744.96 72.5507 744.096 73.7667C743.264 74.9507 742.768 76.7907 742.608 79.2867H752.112Z" fill="#E7CC98"/>
<path d="M768.675 94.8387C765.699 94.8387 763.507 93.7827 762.099 91.6707C760.723 89.5267 760.035 86.1827 760.035 81.6387C760.035 77.0947 760.739 73.7667 762.147 71.6547C763.555 69.5107 765.731 68.4387 768.675 68.4387C771.363 68.4387 773.315 69.2707 774.531 70.9347C775.779 72.5987 776.403 75.0787 776.403 78.3747H772.323C772.323 76.1027 772.051 74.4707 771.507 73.4787C770.995 72.4547 770.051 71.9427 768.675 71.9427C767.139 71.9427 766.003 72.6787 765.267 74.1507C764.531 75.5907 764.163 77.7827 764.163 80.7267V82.5507C764.163 85.4947 764.515 87.7027 765.219 89.1747C765.955 90.6147 767.107 91.3347 768.675 91.3347C770.051 91.3347 771.027 90.8067 771.603 89.7507C772.211 88.6947 772.515 87.0787 772.515 84.9027H776.403C776.403 87.7827 775.763 90.1667 774.483 92.0547C773.235 93.9107 771.299 94.8387 768.675 94.8387Z" fill="#E7CC98"/>
<path d="M780.874 59.5587H784.81V80.7267L792.97 69.0147H797.338L789.898 79.3827L797.722 94.2627H793.258L787.498 82.7427L784.81 85.6707V94.2627H780.874V59.5587Z" fill="#E7CC98"/>
<path fill-rule="evenodd" clip-rule="evenodd" d="M232.632 576.319C232.632 570.796 237.109 566.319 242.632 566.319H712.42C717.943 566.319 722.42 570.796 722.42 576.319C722.42 581.842 717.943 586.319 712.42 586.319H242.632C237.109 586.319 232.632 581.842 232.632 576.319Z" fill="#E7CC98"/>
<path d="M327.146 476.845H634.854V586.319H327.146V476.845Z" fill="#E7CC98"/>
</svg>
