<svg width="101" height="101" viewBox="0 0 101 101" fill="none" xmlns="http://www.w3.org/2000/svg">
<path d="M50.2511 100.27C21.9786 100.158 -0.486408 77.0064 0.33326 48.8025C1.11623 21.8562 23.1788 0.142371 50.6499 0.333219C78.3167 0.526514 100.484 23.131 100.21 50.7061C99.9364 78.1968 77.4053 100.549 50.2511 100.27ZM51.3105 43.1896C46.2469 43.356 41.7192 45.1091 37.5389 47.8727C37.1853 48.1064 36.8464 48.3951 36.5785 48.7218C35.6243 49.8864 35.9509 50.8725 37.3896 51.2481C37.9426 51.3924 38.5102 51.4915 39.0534 51.6652C41.3509 52.398 41.97 53.5248 41.3876 55.9067C39.9709 61.697 38.5261 67.4812 37.1339 73.2776C36.1014 77.579 38.2802 81.0962 42.4092 81.4155C48.52 81.8865 53.9738 79.8704 58.8796 76.3299C59.3995 75.9556 59.802 75.0233 59.747 74.3945C59.7139 74.0128 58.7071 73.6984 58.1174 73.3926C57.8691 73.2641 57.5681 73.2397 57.2916 73.165C54.5586 72.4347 53.8478 71.292 54.5097 68.5651C55.8799 62.9106 57.3369 57.2769 58.6166 51.6016C58.92 50.2584 58.9408 48.7144 58.6007 47.3895C57.8385 44.4387 55.2559 43.0746 51.3105 43.1896ZM64.0239 25.8702C64.0313 20.6512 59.9978 16.5333 54.8436 16.499C49.6027 16.4636 45.3942 20.6304 45.4383 25.809C45.4823 30.9705 49.5843 35.0223 54.7849 35.0394C59.8559 35.0566 64.0154 30.9276 64.0239 25.8702Z" fill="#E7CC98"/>
</svg>
